<svg data-v-423bf9ae="" xmlns="http://www.w3.org/2000/svg" viewBox="0 0 207.78522742492095 60" class="font"><!----><!----><!----><g data-v-423bf9ae="" id="ad720543-5739-43b5-b10c-b45bf72b0238" fill="white" transform="matrix(5.03355701476259,0,0,5.03355701476259,0.7046999336315736,-11.577181132353836)"><path d="M2.38 10.53L2.38 12.59L2.38 12.59Q2.38 13.28 2.78 13.28L2.78 13.28L2.78 13.28Q2.91 13.28 3.19 13.16L3.19 13.16L3.19 13.16Q2.93 13.75 2.39 14.05L2.39 14.05L2.39 14.05Q2.12 14.21 1.81 14.19L1.81 14.19L1.81 14.19Q1.50 14.18 1.37 14.03L1.37 14.03L1.37 14.03Q1.24 13.88 1.16 13.67L1.16 13.67L1.16 13.67Q1.05 13.33 1.05 12.80L1.05 12.80L1.05 5.00L1.05 5.00Q1.05 4.27 0.80 4.03L0.80 4.03L0.80 4.03Q0.68 3.92 0.51 3.92L0.51 3.92L0.51 3.92Q0.21 3.92-0.14 4.02L-0.14 4.02L-0.14 4.02Q0.70 3.36 2.38 2.30L2.38 2.30L2.38 8.57L2.38 8.57Q3.23 7.82 4.13 7.55L4.13 7.55L4.13 7.55Q4.46 7.44 4.76 7.44L4.76 7.44L4.76 7.44Q5.07 7.44 5.35 7.54L5.35 7.54L5.35 7.54Q5.63 7.64 5.84 7.82L5.84 7.82L5.84 7.82Q6.33 8.22 6.33 8.83L6.33 8.83L6.33 12.30L6.33 12.30Q6.33 13.21 6.77 13.30L6.77 13.30L6.77 13.30Q6.89 13.33 7.03 13.33L7.03 13.33L7.03 13.33Q7.24 13.33 7.62 13.16L7.62 13.16L7.62 13.16Q7.05 13.88 6.30 14.11L6.30 14.11L6.30 14.11Q6.04 14.19 5.75 14.19L5.75 14.19L5.75 14.19Q5.45 14.19 5.28 14.05L5.28 14.05L5.28 14.05Q5.12 13.90 5.06 13.69L5.06 13.69L5.06 13.69Q5.00 13.47 5.00 13.21L5.00 13.21L5.00 10.14L5.00 10.14Q5.00 9.10 4.68 8.74L4.68 8.74L4.68 8.74Q4.38 8.39 3.59 8.39L3.59 8.39L3.59 8.39Q2.53 8.39 2.41 9.84L2.41 9.84L2.41 9.84Q2.38 10.21 2.38 10.53L2.38 10.53ZM8.82 3.41L10.14 2.48L10.19 3.26L10.19 3.62L10.19 3.62Q10.19 3.94 10.10 4.02L10.10 4.02L10.10 4.02Q10.02 4.09 9.93 4.16L9.93 4.16L9.93 4.16Q9.54 4.43 8.82 4.89L8.82 4.89L8.82 4.89Q8.85 4.21 8.85 4.19L8.85 4.19L8.85 4.19Q8.85 4.16 8.82 3.41L8.82 3.41ZM11.57 13.24L11.57 13.24L11.57 13.24Q11.37 13.41 11.17 13.58L11.17 13.58L11.17 13.58Q10.98 13.75 10.77 13.89L10.77 13.89L10.77 13.89Q10.27 14.21 9.82 14.21L9.82 14.21L9.82 14.21Q9.40 14.21 9.23 14.08L9.23 14.08L9.23 14.08Q8.88 13.82 8.88 13.13L8.88 13.13L8.88 9.88L8.88 9.88Q8.88 9.15 8.61 8.93L8.61 8.93L8.61 8.93Q8.49 8.83 8.35 8.83L8.35 8.83L8.35 8.83Q8.20 8.83 8.10 8.84L8.10 8.84L8.10 8.84Q8.00 8.86 7.90 8.88L7.90 8.88L7.90 8.88Q7.80 8.90 7.69 8.92L7.69 8.92L7.69 8.92Q8.03 8.65 8.33 8.44L8.33 8.44L8.33 8.44Q8.63 8.23 8.84 8.09L8.84 8.09L8.84 8.09Q9.05 7.94 9.43 7.68L9.43 7.68L9.43 7.68Q9.80 7.42 10.21 7.21L10.21 7.21L10.21 12.03L10.21 12.03Q10.21 12.73 10.29 12.91L10.29 12.91L10.29 12.91Q10.49 13.29 11.14 13.29L11.14 13.29L11.14 13.29Q11.32 13.29 11.57 13.24ZM12.76 8.16L11.87 8.16L12.76 7.46L12.76 6.49L12.76 6.49Q13.13 6.23 13.29 6.09L13.29 6.09L13.29 6.09Q13.45 5.95 13.56 5.89L13.56 5.89L13.56 5.89Q13.67 5.83 13.78 5.76L13.78 5.76L13.78 5.76Q14.08 5.59 14.10 5.56L14.10 5.56L14.10 7.23L16.28 7.23L16.28 7.23Q16.19 7.23 15.83 7.55L15.83 7.55L15.83 7.55Q15.14 8.16 14.96 8.16L14.96 8.16L14.10 8.16L14.10 11.82L14.10 11.82Q14.10 13.08 14.82 13.28L14.82 13.28L14.82 13.28Q15.04 13.33 15.23 13.33L15.23 13.33L15.23 13.33Q15.54 13.33 15.76 13.24L15.76 13.24L15.76 13.24Q15.98 13.15 16.13 13.07L16.13 13.07L16.13 13.07Q15.71 13.71 14.96 14.04L14.96 14.04L14.96 14.04Q14.57 14.21 14.12 14.21L14.12 14.21L14.12 14.21Q13.67 14.21 13.43 14.05L13.43 14.05L13.43 14.05Q13.18 13.90 13.03 13.64L13.03 13.64L13.03 13.64Q12.76 13.18 12.76 12.41L12.76 12.41L12.76 8.16ZM22.25 8.61L22.25 8.61L22.25 8.61Q23.77 7.44 24.56 7.44L24.56 7.44L24.56 7.44Q25.09 7.44 25.40 7.89L25.40 7.89L25.40 7.89Q25.67 8.26 25.67 8.83L25.67 8.83L25.67 12.09L25.67 12.09Q25.67 12.71 25.74 12.90L25.74 12.90L25.74 12.90Q25.91 13.26 26.44 13.26L26.44 13.26L26.44 13.26Q26.71 13.26 26.96 13.16L26.96 13.16L26.96 13.16Q26.35 13.69 26.12 13.84L26.12 13.84L26.12 13.84Q25.59 14.18 25.19 14.18L25.19 14.18L25.19 14.18Q24.79 14.18 24.62 14.04L24.62 14.04L24.62 14.04Q24.45 13.90 24.38 13.69L24.38 13.69L24.38 13.69Q24.31 13.45 24.31 12.70L24.31 12.70L24.31 10.12L24.31 10.12Q24.31 9.37 24.17 9.05L24.17 9.05L24.17 9.05Q24.03 8.72 23.82 8.56L23.82 8.56L23.82 8.56Q23.62 8.39 23.34 8.39L23.34 8.39L23.34 8.39Q23.06 8.39 22.91 8.48L22.91 8.48L22.91 8.48Q22.76 8.56 22.65 8.69L22.65 8.69L22.65 8.69Q22.24 9.17 22.24 10.26L22.24 10.26L22.24 12.20L22.24 12.20Q22.24 12.71 22.35 12.90L22.35 12.90L22.35 12.90Q22.56 13.26 23.04 13.26L23.04 13.26L23.04 13.26Q23.31 13.26 23.56 13.16L23.56 13.16L23.56 13.16Q22.95 13.69 22.72 13.84L22.72 13.84L22.72 13.84Q22.18 14.18 21.78 14.18L21.78 14.18L21.78 14.18Q21.38 14.18 21.22 14.04L21.22 14.04L21.22 14.04Q21.05 13.90 20.98 13.69L20.98 13.69L20.98 13.69Q20.90 13.45 20.90 12.70L20.90 12.70L20.90 10.12L20.90 10.12Q20.90 9.37 20.76 9.05L20.76 9.05L20.76 9.05Q20.62 8.72 20.42 8.56L20.42 8.56L20.42 8.56Q20.21 8.39 19.93 8.39L19.93 8.39L19.93 8.39Q19.64 8.39 19.48 8.50L19.48 8.50L19.48 8.50Q19.33 8.61 19.21 8.79L19.21 8.79L19.21 8.79Q19.10 8.98 19.03 9.20L19.03 9.20L19.03 9.20Q18.96 9.43 18.92 9.67L18.92 9.67L18.92 9.67Q18.86 10.08 18.86 10.53L18.86 10.53L18.86 12.64L18.86 12.64Q18.86 13.08 19.13 13.23L19.13 13.23L19.13 13.23Q19.22 13.30 19.37 13.30L19.37 13.30L19.37 13.30Q19.51 13.30 19.67 13.23L19.67 13.23L19.67 13.23Q18.88 13.90 18.56 14.06L18.56 14.06L18.56 14.06Q18.24 14.22 18.05 14.22L18.05 14.22L18.05 14.22Q17.53 14.22 17.53 13.62L17.53 13.62L17.53 9.68L17.53 9.68Q17.53 9.44 17.53 9.20L17.53 9.20L17.53 9.20Q17.54 8.96 17.49 8.76L17.49 8.76L17.49 8.76Q17.36 8.33 16.74 8.33L16.74 8.33L16.74 8.33Q16.45 8.33 16.15 8.44L16.15 8.44L16.15 8.44Q16.33 8.38 16.61 8.12L16.61 8.12L16.61 8.12Q17.16 7.63 17.37 7.55L17.37 7.55L17.37 7.55Q17.81 7.39 18.10 7.39L18.10 7.39L18.10 7.39Q18.40 7.39 18.56 7.50L18.56 7.50L18.56 7.50Q18.71 7.61 18.78 7.78L18.78 7.78L18.78 7.78Q18.86 7.99 18.86 8.60L18.86 8.60L18.86 8.60Q19.75 7.90 20.58 7.57L20.58 7.57L20.58 7.57Q20.90 7.44 21.15 7.44L21.15 7.44L21.15 7.44Q21.40 7.44 21.60 7.54L21.60 7.54L21.60 7.54Q21.79 7.64 21.93 7.80L21.93 7.80L21.93 7.80Q22.21 8.13 22.25 8.61ZM32.06 9.28L32.06 12.06L32.05 12.54L32.05 12.54Q32.05 13.07 32.35 13.21L32.35 13.21L32.35 13.21Q32.46 13.27 32.61 13.27L32.61 13.27L32.61 13.27Q32.85 13.27 33.11 13.16L33.11 13.16L33.11 13.16Q32.85 13.27 32.66 13.45L32.66 13.45L32.66 13.45Q32.46 13.62 32.27 13.79L32.27 13.79L32.27 13.79Q31.77 14.21 31.27 14.21L31.27 14.21L31.27 14.21Q30.78 14.21 30.74 13.63L30.74 13.63L30.74 13.63Q30.73 13.48 30.73 13.33L30.73 13.33L30.73 13.33Q29.50 14.18 28.47 14.18L28.47 14.18L28.47 14.18Q27.60 14.18 27.27 13.66L27.27 13.66L27.27 13.66Q27.15 13.47 27.15 13.13L27.15 13.13L27.15 13.13Q27.15 12.80 27.35 12.46L27.35 12.46L27.35 12.46Q27.56 12.12 27.87 11.84L27.87 11.84L27.87 11.84Q28.43 11.32 29.22 10.99L29.22 10.99L29.22 10.99Q29.81 10.73 30.73 10.70L30.73 10.70L30.73 10.40L30.73 10.40Q30.73 9.31 30.54 8.93L30.54 8.93L30.54 8.93Q30.34 8.54 30.02 8.36L30.02 8.36L30.02 8.36Q29.71 8.18 29.29 8.18L29.29 8.18L29.29 8.18Q28.57 8.18 28.02 8.46L28.02 8.46L28.02 8.46Q28.77 7.84 29.12 7.64L29.12 7.64L29.12 7.64Q29.84 7.24 30.42 7.24L30.42 7.24L30.42 7.24Q31.01 7.24 31.30 7.41L31.30 7.41L31.30 7.41Q31.60 7.58 31.77 7.86L31.77 7.86L31.77 7.86Q32.06 8.35 32.06 9.28L32.06 9.28ZM28.85 13.04L28.85 13.04L28.85 13.04Q29.01 13.16 29.23 13.21L29.23 13.21L29.23 13.21Q29.45 13.27 29.88 13.27L29.88 13.27L29.88 13.27Q30.31 13.27 30.73 13.06L30.73 13.06L30.73 11.63L29.63 11.63L29.63 11.63Q29.03 11.63 28.59 11.71L28.59 11.71L28.59 11.71Q28.50 12.00 28.50 12.27L28.50 12.27L28.50 12.27Q28.50 12.54 28.59 12.73L28.59 12.73L28.59 12.73Q28.68 12.92 28.85 13.04ZM34.57 13.62L34.57 13.62L34.58 9.22L34.58 9.22Q34.58 8.76 34.45 8.61L34.45 8.61L34.45 8.61Q34.24 8.33 33.87 8.33L33.87 8.33L33.87 8.33Q33.49 8.33 33.20 8.44L33.20 8.44L33.20 8.44Q33.37 8.37 33.66 8.12L33.66 8.12L33.66 8.12Q34.19 7.64 34.41 7.55L34.41 7.55L34.41 7.55Q34.82 7.39 35.13 7.39L35.13 7.39L35.13 7.39Q35.44 7.39 35.59 7.49L35.59 7.49L35.59 7.49Q35.75 7.59 35.81 7.77L35.81 7.77L35.81 7.77Q35.90 7.98 35.90 8.57L35.90 8.57L35.90 8.57Q37.18 7.44 38.29 7.44L38.29 7.44L38.29 7.44Q38.90 7.44 39.35 7.83L39.35 7.83L39.35 7.83Q39.83 8.24 39.83 8.83L39.83 8.83L39.83 12.20L39.83 12.20Q39.83 12.71 39.94 12.90L39.94 12.90L39.94 12.90Q40.14 13.26 40.62 13.26L40.62 13.26L40.62 13.26Q40.89 13.26 41.14 13.16L41.14 13.16L41.14 13.16Q40.53 13.69 40.30 13.84L40.30 13.84L40.30 13.84Q39.76 14.18 39.36 14.18L39.36 14.18L39.36 14.18Q38.96 14.18 38.80 14.04L38.80 14.04L38.80 14.04Q38.63 13.90 38.56 13.68L38.56 13.68L38.56 13.68Q38.49 13.44 38.49 12.70L38.49 12.70L38.49 10.14L38.49 10.14Q38.49 8.92 37.69 8.53L37.69 8.53L37.69 8.53Q37.40 8.39 37.00 8.39L37.00 8.39L37.00 8.39Q36.00 8.39 35.92 9.86L35.92 9.86L35.92 9.86Q35.90 10.23 35.90 10.53L35.90 10.53L35.90 12.64L35.90 12.64Q35.90 13.08 36.17 13.23L36.17 13.23L36.17 13.23Q36.26 13.30 36.41 13.30L36.41 13.30L36.41 13.30Q36.55 13.30 36.71 13.23L36.71 13.23L36.71 13.23Q36.57 13.35 36.37 13.52L36.37 13.52L36.37 13.52Q36.17 13.69 35.95 13.85L35.95 13.85L35.95 13.85Q35.41 14.22 35.09 14.22L35.09 14.22L35.09 14.22Q34.57 14.22 34.57 13.62Z"></path></g><!----><!----></svg>